<?xml version="1.0" encoding="utf-8"?>
<!-- Generator: Adobe Illustrator 27.2.0, SVG Export Plug-In . SVG Version: 6.00 Build 0)  -->
<svg version="1.1" id="レイヤー_1" xmlns="http://www.w3.org/2000/svg" xmlns:xlink="http://www.w3.org/1999/xlink" x="0px"
	 y="0px" viewBox="0 0 448 448" style="enable-background:new 0 0 448 448;" xml:space="preserve">
<path d="M102.3,128.4c0-17.7,14.3-32,32-32H416c17.7,0,32,14.3,32,32s-14.3,32-32,32H134.3C116.6,160.4,102.3,146.1,102.3,128.4z"/>
<path d="M102.3,256.4c0-17.7,14.3-32,32-32h211.3c17.8,0,32,14.3,32,32s-14.3,32-32,32H134.3C116.6,288.4,102.3,274.1,102.3,256.4z"
	/>
<path d="M16,64.4c8.9,0,16,7.1,16,16V352c0,8.9-7.1,16-16,16s-16-7.1-16-16V80.4C0,71.5,7.1,64.4,16,64.4z"/>
<path d="M448,352c0,8.9-7.1,16-16,16H16c-8.9,0-16-7.1-16-16s7.1-16,16-16h416C440.9,336,448,343.2,448,352z"/>
</svg>
