<?xml version="1.0" encoding="utf-8"?>
<!-- Generator: Adobe Illustrator 27.2.0, SVG Export Plug-In . SVG Version: 6.00 Build 0)  -->
<svg version="1.1" id="レイヤー_1" xmlns="http://www.w3.org/2000/svg" xmlns:xlink="http://www.w3.org/1999/xlink" x="0px"
	 y="0px" viewBox="0 0 448 448" style="enable-background:new 0 0 448 448;" xml:space="preserve">
<path d="M128,118h288c17.7,0,32,14.3,32,32s-14.2,32-32,32H128c-17.7,0-32-14.3-32-32S110.3,118,128,118z"/>
<path d="M32,278h384c17.7,0,32,14.3,32,32c0,17.7-14.2,32-32,32H32c-17.7,0-32-14.3-32-32C0,292.3,14.3,278,32,278z"/>
<path d="M26,230.1V124.4c0-8.9,7.1-16,16-16s16,7.1,16,16v105.7c0,8.9-7.1,16-16,16S26,239,26,230.1z"/>
</svg>
