<?xml version="1.0" encoding="utf-8"?>
<!-- Generator: Adobe Illustrator 27.2.0, SVG Export Plug-In . SVG Version: 6.00 Build 0)  -->
<svg version="1.1" id="レイヤー_1" xmlns="http://www.w3.org/2000/svg" xmlns:xlink="http://www.w3.org/1999/xlink" x="0px"
	 y="0px" viewBox="0 0 448 448" style="enable-background:new 0 0 448 448;" xml:space="preserve">
<path d="M96,304c0-17.7,14.3-32,32-32h288c17.8,0,32,14.3,32,32s-14.3,32-32,32H128C110.3,336,96,321.7,96,304z"/>
<circle cx="32" cy="304" r="32"/>
<path d="M96,144c0-17.7,14.3-32,32-32h288c17.8,0,32,14.3,32,32s-14.3,32-32,32H128C110.3,176,96,161.7,96,144z"/>
<circle cx="32" cy="144" r="32"/>
</svg>
