<?xml version="1.0" encoding="utf-8"?>
<!-- Generator: Adobe Illustrator 27.2.0, SVG Export Plug-In . SVG Version: 6.00 Build 0)  -->
<svg version="1.1" id="レイヤー_1" xmlns="http://www.w3.org/2000/svg" xmlns:xlink="http://www.w3.org/1999/xlink" x="0px"
	 y="0px" viewBox="0 0 448 448" style="enable-background:new 0 0 448 448;" xml:space="preserve">
<path d="M25.3,176.5c21.7,0.3,30.6,10.4,30.6,31.8c0,0.6,0,0.9,0,1.2c-0.6,41-1.2,63-1.2,77.9c0,2.4,0.9,5.4,5.1,5.6
	c11-0.3,16.9,6.8,16.9,14.6c0,7.4-5.4,14.9-16.4,14.9c-0.3,0-0.3,0-0.6,0c-6.2-0.3-16.6-0.3-25.9-0.3c-7.1,0-13.4,0-16.9,0.3
	C4.2,323.1,0,314.4,0,307.9c0-7.4,5.4-14.9,15.8-14.9c0.3,0,0.9,0,1.2,0c1.2,0,2.4,0,3.6,0c3.9,0,5.1-0.9,5.1-6.2
	c0.3-13.7,0.6-31.8,0.6-52.3c0-4.8,0-9.8,0-14.9c0-8.3-0.9-11.6-8.3-11.6c-0.6,0-1.5,0-2.1,0c-0.3,0-0.6,0-0.9,0
	c-9.2,0-13.7-7.4-13.7-15.2c0-8,4.8-16.4,14.6-16.4h9.4V176.5z M14.3,116.4c0-14.6,12.5-20.2,20.8-20.2c10.7,0,20.8,8.9,20.8,20.2
	c0,10.7-8,21.1-20.8,21.1C23.5,137.6,14.3,130.1,14.3,116.4z"/>
<path d="M252,322.2c-5.9-0.3-15.5-0.3-24.4-0.3c-6.2,0-12.2,0-15.8,0.3c-16.1,0.9-16.1-12.8-16.1-13.7c0-7.1,5.1-14.3,14.9-14.3
	c0.3,0,0.9,0,1.2,0s0.6,0,0.9,0c3,0,4.5-1.2,4.5-4.5c0-9.2,0.3-19.6,0.3-29.1c0-14-0.3-26.2-0.6-31.2c-1.2-20.2-14-28.5-27.6-28.5
	c-17.2,0-36.3,13.1-37.2,31.8c-0.3,5.4-0.3,13.4-0.3,23.2s0,21.7,0.3,35.1c0,3.3,2.1,3.3,5.1,3.3c13.1-0.6,16.4,8.3,16.4,13.7
	c0,7.1-5.4,14.3-15.8,14.3c-0.3,0-0.3,0-0.6,0c-5.9-0.3-15.5-0.3-24.4-0.3c-6.2,0-12.2,0-15.8,0.3c-16.1,0.9-16.1-12.8-16.1-13.7
	c0-7.1,5.1-14.3,14.9-14.3c0.3,0,0.9,0,1.2,0c0.6,0,0.9,0,1.5,0c2.7,0,3.6-0.9,3.6-4.2c0.6-30.3,0.9-35.4,0.9-46.7
	c0-6.2,0-14-0.3-28.5c0-3.6-2.4-7.4-7.1-7.4c-0.3,0-0.3,0-0.6,0s-0.6,0-1.2,0c-8.9,0-13.4-7.1-13.4-14.9s4.8-15.5,14.6-15.5
	c3.6,0,4.2-0.3,7.1-0.3c0.6,0,1.2,0,1.8,0c12.2,0,22,3,26.8,10.7c0.3,0.6,0.6,0.9,1.2,0.9c0.6,0,1.5-0.9,3-2.1
	c9.5-7.4,24.7-12.5,40.1-12.5c25.3,0,51.1,13.4,52.3,51.1c0.3,11.9,0.9,42.8,0.9,65.1c0,3.3,2.1,4.2,3.9,4.2
	c11,0,16.6,7.1,16.6,14.3c0,6.8-5.4,13.7-16.1,13.7C252.6,322.2,252.3,322.2,252,322.2z"/>
<path d="M431.4,322.2c-5.9-0.3-15.5-0.3-24.4-0.3c-6.2,0-12.2,0-15.8,0.3c-16.1,0.9-16.1-12.8-16.1-13.7c0-7.1,5.1-14.3,14.9-14.3
	c0.3,0,0.9,0,1.2,0c0.3,0,0.6,0,1.2,0c3,0,4.2-1.2,4.2-4.5c0-9.2,0.3-19.6,0.3-29.1c0-14-0.3-26.2-0.6-31.2
	c-1.2-20.2-14-28.5-27.6-28.5c-17.2,0-36.3,13.1-37.2,31.8c-0.3,5.4-0.3,13.4-0.3,23.2s0,21.7,0.3,35.1c0,3.3,2.1,3.3,5.1,3.3
	c13.1-0.6,16.4,8.3,16.4,13.7c0,7.1-5.4,14.3-15.8,14.3c-0.3,0-0.3,0-0.6,0c-5.9-0.3-15.5-0.3-24.4-0.3c-6.2,0-12.2,0-15.8,0.3
	c-16.1,0.9-16.1-12.8-16.1-13.7c0-7.1,5.1-14.3,14.9-14.3c0.3,0,0.9,0,1.2,0c0.6,0,0.9,0,1.5,0c2.7,0,3.6-0.9,3.6-4.2
	c0.6-30.3,0.9-68.4,0.9-102.9c0-18.4,0-35.7-0.3-50.2c0-5.4-1.8-7.7-8-7.7c-4.8,0-16.6-0.3-16.6-15.5c0-7.7,4.5-15.5,13.7-15.5
	c0.3,0,0.6,0,0.9,0c3.6,0.3,6.5,0.3,9.5,0.3c16.4,0.3,30.9,7.4,31.2,25.3c0,6.8,0.3,13.4,0.3,19.3c0,19.3-0.6,34.5-0.9,42.2
	c0,1.2,0,1.8,0.6,1.8c0.3,0,0.6-0.3,1.5-0.9c9.5-7.4,24.7-12.5,40.1-12.5c25.3,0,51.1,13.4,52.3,51.1c0.3,11.9,0.9,42.8,0.9,65.1
	c0,3.3,2.1,4.2,3.9,4.2c11,0,16.6,7.1,16.6,14.3c0,6.8-5.4,13.7-16.1,13.7C431.9,322.2,431.6,322.2,431.4,322.2z"/>
</svg>
