<?xml version="1.0" encoding="utf-8"?>
<!-- Generator: Adobe Illustrator 27.2.0, SVG Export Plug-In . SVG Version: 6.00 Build 0)  -->
<svg version="1.1" id="レイヤー_1" xmlns="http://www.w3.org/2000/svg" xmlns:xlink="http://www.w3.org/1999/xlink" x="0px"
	 y="0px" viewBox="0 0 448 448" style="enable-background:new 0 0 448 448;" xml:space="preserve">
<path d="M94.6,332.1L333.4,93.3c6.3-6.3,16.3-6.3,22.6,0s6.3,16.3,0,22.6L117.2,354.7c-6.3,6.3-16.3,6.3-22.6,0
	S88.3,338.4,94.6,332.1z"/>
<g>
	<path d="M64,344c22.1,0,40,17.9,40,40s-17.9,40-40,40s-40-17.9-40-40S41.9,344,64,344 M64,320c-35.3,0-64,28.7-64,64s28.7,64,64,64
		s64-28.7,64-64S99.3,320,64,320L64,320z"/>
</g>
<g>
	<path d="M384,24c22.1,0,40,17.9,40,40s-17.9,40-40,40s-40-17.9-40-40S361.9,24,384,24 M384,0c-35.3,0-64,28.7-64,64s28.7,64,64,64
		s64-28.7,64-64S419.3,0,384,0L384,0z"/>
</g>
</svg>
